<svg xmlns="http://www.w3.org/2000/svg" viewBox="0 0 24 24"><path d="M3.312 19.004a3.615 3.615 0 0 1-2.484-.942c-2.208-1.958.451-5.855 2.233-8.004a.5.5 0 0 1 .835.538c-.676 1.389-.742 2.52-.184 3.183.492.585 1.447.783 2.43.499 2.841-.791 16.993-4.729 17.07-4.749.396-.103.663.089.752.323.089.233.02.55-.334.732-.665.297-15.714 7.008-17.122 7.586-.892.367-2.03.834-3.196.834zm-.971-6.284c-1.037 1.611-1.945 3.623-.85 4.594 1.416 1.255 3.256.499 4.599-.053.883-.362 7.112-3.128 11.802-5.215C12.958 13.418 6.52 15.21 6.416 15.24c-1.361.39-2.722.07-3.469-.817-.267-.319-.581-.867-.606-1.703z"/><path d="M5.25 11a.501.501 0 0 1-.465-.686l2-5a.502.502 0 0 1 .965.186v5a.5.5 0 0 1-1 0V8.096l-1.036 2.589A.5.5 0 0 1 5.25 11z"/><path d="M7.25 11a.501.501 0 0 1-.465-.686l2-5a.5.5 0 1 1 .929.371l-2 5A.5.5 0 0 1 7.25 11zm2 0a.501.501 0 0 1-.465-.686l2-5a.5.5 0 0 1 .929.371l-2 5A.5.5 0 0 1 9.25 11zM11 11a.501.501 0 0 1-.465-.686l2-5a.5.5 0 0 1 .929.371l-2 5A.5.5 0 0 1 11 11z"/><path d="M13.25 11a.499.499 0 0 1-.482-.37l-.706-2.61a.497.497 0 0 1 .134-.489l2.456-2.39a.5.5 0 0 1 .697.717l-2.245 2.185.629 2.326a.5.5 0 0 1-.483.631zm3.25 0h-2a.501.501 0 0 1-.464-.686l2-5A.5.5 0 0 1 16.5 5h2a.5.5 0 0 1 0 1h-1.662l-1.6 4H16.5a.5.5 0 0 1 0 1z"/><path d="M17.5 8.5h-2a.5.5 0 0 1 0-1h2a.5.5 0 0 1 0 1z"/></svg>